<mxfile host="drawio-plugin" modified="2023-05-02T22:08:52.236Z" agent="5.0 (Windows NT 6.2; Win64; x64) AppleWebKit/537.36 (KHTML, like Gecko) Chrome/98.0.4758.102 Safari/537.36" etag="7w2aJbzXYfbGo-HbtRD_" version="20.5.3" type="embed"><diagram id="23iRSUPoRavnBvh4doch" name="Page-1"><mxGraphModel dx="1439" dy="528" grid="1" gridSize="10" guides="1" tooltips="1" connect="1" arrows="1" fold="1" page="1" pageScale="1" pageWidth="827" pageHeight="1169" math="0" shadow="0"><root><mxCell id="0"/><mxCell id="1" parent="0"/><mxCell id="4" value="PumpWaterFlow" style="shape=umlFrame;whiteSpace=wrap;html=1;width=110;height=40;" vertex="1" parent="1"><mxGeometry x="-260" y="50" width="590" height="410" as="geometry"/></mxCell><mxCell id="7" value="" style="ellipse;fillColor=strokeColor;" vertex="1" parent="1"><mxGeometry x="-30" y="80" width="30" height="30" as="geometry"/></mxCell><mxCell id="10" value="out pipe gains 1 water" style="rounded=1;whiteSpace=wrap;html=1;" vertex="1" parent="1"><mxGeometry x="180" y="170" width="140" height="40" as="geometry"/></mxCell><mxCell id="11" value="[not broken and heldWater is more than 0 and there is an out pipe]" style="text;html=1;strokeColor=none;fillColor=none;align=center;verticalAlign=middle;whiteSpace=wrap;rounded=0;rotation=0;" vertex="1" parent="1"><mxGeometry x="20" y="150" width="155" height="30" as="geometry"/></mxCell><mxCell id="12" value="&amp;nbsp;in pipe lose 1 water" style="rounded=1;whiteSpace=wrap;html=1;" vertex="1" parent="1"><mxGeometry x="-230" y="290" width="135" height="40" as="geometry"/></mxCell><mxCell id="14" value="" style="endArrow=classic;html=1;rounded=0;exitX=0.5;exitY=1;exitDx=0;exitDy=0;" edge="1" parent="1" source="7" target="20"><mxGeometry width="50" height="50" relative="1" as="geometry"><mxPoint x="20" y="280" as="sourcePoint"/><mxPoint x="-10" y="200" as="targetPoint"/></mxGeometry></mxCell><mxCell id="17" value="[there is an active in pipe]" style="text;html=1;strokeColor=none;fillColor=none;align=center;verticalAlign=middle;whiteSpace=wrap;rounded=0;rotation=0;" vertex="1" parent="1"><mxGeometry x="20" y="320" width="150" height="30" as="geometry"/></mxCell><mxCell id="18" value="" style="ellipse;html=1;shape=endState;fillColor=strokeColor;" vertex="1" parent="1"><mxGeometry x="230" y="375" width="40" height="40" as="geometry"/></mxCell><mxCell id="19" value="" style="endArrow=classic;html=1;rounded=0;exitX=0.5;exitY=1;exitDx=0;exitDy=0;" edge="1" parent="1" source="10" target="23"><mxGeometry width="50" height="50" relative="1" as="geometry"><mxPoint x="20" y="260" as="sourcePoint"/><mxPoint x="230" y="390" as="targetPoint"/></mxGeometry></mxCell><mxCell id="20" value="" style="rhombus;whiteSpace=wrap;html=1;" vertex="1" parent="1"><mxGeometry x="-35" y="170" width="40" height="40" as="geometry"/></mxCell><mxCell id="21" value="" style="endArrow=classic;html=1;rounded=0;exitX=1;exitY=0.5;exitDx=0;exitDy=0;entryX=0;entryY=0.5;entryDx=0;entryDy=0;" edge="1" parent="1" source="20" target="10"><mxGeometry width="50" height="50" relative="1" as="geometry"><mxPoint x="20" y="260" as="sourcePoint"/><mxPoint x="70" y="210" as="targetPoint"/></mxGeometry></mxCell><mxCell id="23" value="" style="rhombus;whiteSpace=wrap;html=1;" vertex="1" parent="1"><mxGeometry x="230" y="290" width="40" height="40" as="geometry"/></mxCell><mxCell id="24" value="" style="endArrow=classic;html=1;rounded=0;entryX=0.5;entryY=0;entryDx=0;entryDy=0;exitX=0.5;exitY=1;exitDx=0;exitDy=0;" edge="1" parent="1" source="23" target="18"><mxGeometry width="50" height="50" relative="1" as="geometry"><mxPoint x="20" y="260" as="sourcePoint"/><mxPoint x="70" y="210" as="targetPoint"/></mxGeometry></mxCell><mxCell id="25" value="" style="endArrow=classic;html=1;rounded=0;exitX=0;exitY=0.5;exitDx=0;exitDy=0;entryX=1;entryY=0.5;entryDx=0;entryDy=0;" edge="1" parent="1" source="23" target="12"><mxGeometry width="50" height="50" relative="1" as="geometry"><mxPoint x="20" y="260" as="sourcePoint"/><mxPoint x="70" y="210" as="targetPoint"/></mxGeometry></mxCell><mxCell id="26" value="" style="endArrow=classic;html=1;rounded=0;exitX=0.5;exitY=1;exitDx=0;exitDy=0;entryX=0;entryY=0;entryDx=0;entryDy=0;" edge="1" parent="1" source="20" target="23"><mxGeometry width="50" height="50" relative="1" as="geometry"><mxPoint x="20" y="240" as="sourcePoint"/><mxPoint x="70" y="190" as="targetPoint"/><Array as="points"/></mxGeometry></mxCell><mxCell id="28" value="else" style="text;html=1;strokeColor=none;fillColor=none;align=center;verticalAlign=middle;whiteSpace=wrap;rounded=0;rotation=15;" vertex="1" parent="1"><mxGeometry x="70" y="220" width="60" height="30" as="geometry"/></mxCell><mxCell id="29" value="" style="rhombus;whiteSpace=wrap;html=1;" vertex="1" parent="1"><mxGeometry x="-190" y="370" width="55" height="50" as="geometry"/></mxCell><mxCell id="30" value="" style="endArrow=classic;html=1;rounded=0;exitX=0.5;exitY=1;exitDx=0;exitDy=0;" edge="1" parent="1" source="12" target="29"><mxGeometry width="50" height="50" relative="1" as="geometry"><mxPoint x="20" y="230" as="sourcePoint"/><mxPoint x="70" y="180" as="targetPoint"/></mxGeometry></mxCell><mxCell id="31" value="" style="endArrow=classic;html=1;rounded=0;exitX=1;exitY=0.5;exitDx=0;exitDy=0;" edge="1" parent="1" source="29" target="32"><mxGeometry width="50" height="50" relative="1" as="geometry"><mxPoint x="20" y="230" as="sourcePoint"/><mxPoint x="70" y="180" as="targetPoint"/></mxGeometry></mxCell><mxCell id="32" value="in pipe gains 1 water" style="rounded=1;whiteSpace=wrap;html=1;" vertex="1" parent="1"><mxGeometry x="60" y="380" width="120" height="30" as="geometry"/></mxCell><mxCell id="33" value="[pump is full with water]" style="text;html=1;strokeColor=none;fillColor=none;align=center;verticalAlign=middle;whiteSpace=wrap;rounded=0;" vertex="1" parent="1"><mxGeometry x="-110" y="360" width="150" height="30" as="geometry"/></mxCell><mxCell id="35" value="" style="endArrow=classic;html=1;rounded=0;entryX=0;entryY=0.5;entryDx=0;entryDy=0;exitX=1;exitY=0.5;exitDx=0;exitDy=0;" edge="1" parent="1" source="32" target="18"><mxGeometry width="50" height="50" relative="1" as="geometry"><mxPoint x="20" y="220" as="sourcePoint"/><mxPoint x="70" y="170" as="targetPoint"/></mxGeometry></mxCell><mxCell id="36" value="" style="endArrow=classic;html=1;rounded=0;exitX=0.5;exitY=1;exitDx=0;exitDy=0;entryX=0.5;entryY=1;entryDx=0;entryDy=0;" edge="1" parent="1" source="29" target="18"><mxGeometry width="50" height="50" relative="1" as="geometry"><mxPoint x="20" y="220" as="sourcePoint"/><mxPoint x="70" y="170" as="targetPoint"/><Array as="points"><mxPoint x="250" y="440"/></Array></mxGeometry></mxCell><mxCell id="37" value="else" style="text;html=1;strokeColor=none;fillColor=none;align=center;verticalAlign=middle;whiteSpace=wrap;rounded=0;" vertex="1" parent="1"><mxGeometry x="-135" y="420" width="60" height="30" as="geometry"/></mxCell></root></mxGraphModel></diagram></mxfile>